<?xml version="1.0" encoding="utf-8"?>
<!-- Generator: Adobe Illustrator 28.0.0, SVG Export Plug-In . SVG Version: 6.00 Build 0)  -->
<svg version="1.1" id="Layer_1" xmlns="http://www.w3.org/2000/svg" xmlns:xlink="http://www.w3.org/1999/xlink" x="0px" y="0px"
	 viewBox="0 0 1080 1080" style="enable-background:new 0 0 1080 1080;" xml:space="preserve">
<style type="text/css">
	.st0{display:none;}
	.st1{display:inline;fill:#5B58F4;}
	.st2{fill:#5B58F4;}
	.st3{fill:#FFFFFF;}
</style>
<g class="st0">
	<path class="st1" d="M381.24,419.98v154.24c3.9,41.55,21.25,68.32,61.06,68.32c33.84,0,57.36-23.52,66.54-45.89
		c2.87-7.46,4.59-16.63,4.59-25.81V400.49h50.47v44.52c13.78-22.04,42.71-49.42,90.43-49.42c43.59,0,95.79,24.09,95.79,121.6v154.24
		c2.36,25.19,9.69,44.94,23.95,56.59c41.39-51.46,66.17-116.84,66.17-188.01c0-165.82-134.42-300.24-300.24-300.24
		c-76.35,0-146.02,28.51-199,75.45C363.97,332.1,381.24,363.89,381.24,419.98z"/>
	<path class="st1" d="M698.76,660.02V505.78c-3.9-41.55-21.25-68.32-61.06-68.32c-33.84,0-57.36,23.52-66.54,45.89
		c-2.87,7.46-4.59,16.63-4.59,25.81v170.35H516.1v-44.52c-13.78,22.04-42.71,49.42-90.43,49.42c-43.59,0-95.79-24.09-95.79-121.6
		V408.58c-2.36-25.19-9.69-44.94-23.95-56.59c-41.39,51.46-66.17,116.84-66.17,188.01c0,165.82,134.42,300.24,300.24,300.24
		c76.35,0,146.02-28.51,199-75.45C716.03,747.9,698.76,716.11,698.76,660.02z"/>
</g>
<path class="st2" d="M768.16,1080H311.84C139.62,1080,0,940.38,0,768.16V311.84C0,139.62,139.62,0,311.84,0h456.32
	C940.38,0,1080,139.62,1080,311.84v456.32C1080,940.38,940.38,1080,768.16,1080z"/>
<g>
	<path class="st3" d="M802.42,270.53v555.95h-141.5v-70.25c-18.06,24.08-41.65,42.99-70.75,56.7c-29.1,13.7-60.71,20.57-94.83,20.57
		c-43.5,0-81.96-9.19-115.4-27.6c-33.46-18.39-59.71-45.49-78.78-81.29c-19.07-35.78-28.6-78.43-28.6-127.95V270.53h140.49V576.6
		c0,44.16,11.04,78.12,33.12,101.86c22.08,23.76,52.18,35.63,90.32,35.63c38.79,0,69.24-11.87,91.32-35.63
		c22.08-23.74,33.12-57.7,33.12-101.86V270.53H802.42z"/>
</g>
</svg>
